<svg xmlns="http://www.w3.org/2000/svg" xmlns:xlink="http://www.w3.org/1999/xlink" width="500" zoomAndPan="magnify" viewBox="0 0 375 374.999991" height="500" preserveAspectRatio="xMidYMid meet" version="1.0"><defs><g/><clipPath id="b40811f2cd"><path d="M 139.074219 94.542969 L 250.824219 94.542969 L 250.824219 225 L 139.074219 225 Z M 139.074219 94.542969 " clip-rule="nonzero"/></clipPath></defs><g clip-path="url(#b40811f2cd)"><path fill="#007e30" d="M 244.816406 200.890625 L 244.816406 200.902344 C 243.558594 202.46875 242.21875 203.988281 240.792969 205.464844 C 235.832031 210.605469 230.183594 214.828125 223.84375 218.128906 C 225.398438 215.652344 226.699219 213.042969 227.75 210.3125 C 231.226562 201.226562 231.523438 191.816406 228.582031 183.816406 C 223.960938 171.246094 212.019531 164.96875 199.378906 158.320312 C 190.082031 153.445312 180.480469 148.402344 173.601562 140.617188 C 168.640625 134.992188 166.042969 128.042969 166.242188 121.097656 C 166.242188 120.941406 166.242188 120.789062 166.257812 120.632812 C 166.273438 120.328125 166.292969 120.019531 166.316406 119.710938 C 166.378906 118.960938 166.472656 118.183594 166.605469 117.425781 C 167.492188 112.308594 169.910156 107.460938 173.667969 103.144531 C 180.980469 95.460938 193.144531 91.832031 207.683594 96.863281 L 207.707031 96.863281 C 212.21875 98.46875 216.542969 100.46875 220.6875 102.867188 C 224.832031 105.265625 228.722656 108.019531 232.363281 111.128906 C 236.003906 114.238281 239.332031 117.648438 242.347656 121.367188 C 245.363281 125.085938 248.019531 129.046875 250.308594 133.25 C 226.410156 124.382812 213.125 128.511719 207.292969 125.882812 C 205.148438 124.898438 203.191406 123.628906 201.421875 122.074219 C 199.648438 120.519531 198.136719 118.742188 196.886719 116.742188 L 196.886719 116.730469 C 185.382812 99.007812 176.441406 109.140625 178.710938 121.367188 C 180.4375 129.460938 185.34375 136.992188 192.707031 142.628906 C 201.582031 149.421875 212.386719 152.648438 221.921875 155.503906 C 233.265625 158.894531 243.058594 161.820312 247.65625 169.394531 C 252.910156 178.0625 251.703125 191.21875 244.816406 200.890625 Z M 190.625 161.082031 C 177.984375 154.4375 166.046875 148.152344 161.425781 135.585938 C 158.484375 127.589844 158.78125 118.179688 162.257812 109.09375 C 163.304688 106.359375 164.609375 103.753906 166.160156 101.273438 C 159.824219 104.578125 154.171875 108.800781 149.210938 113.941406 C 147.785156 115.417969 146.445312 116.9375 145.183594 118.503906 C 138.289062 128.191406 137.078125 141.347656 142.351562 150.015625 C 146.945312 157.585938 156.742188 160.515625 168.082031 163.90625 C 177.617188 166.757812 188.421875 169.984375 197.300781 176.78125 C 204.664062 182.417969 209.574219 189.949219 211.292969 198.042969 C 213.5625 210.269531 204.625 220.402344 193.121094 202.679688 L 193.121094 202.667969 C 191.867188 200.667969 190.355469 198.890625 188.585938 197.335938 C 186.8125 195.78125 184.855469 194.511719 182.714844 193.527344 C 176.878906 190.898438 163.59375 195.03125 139.695312 186.160156 C 141.988281 190.363281 144.640625 194.320312 147.65625 198.039062 C 150.671875 201.757812 153.996094 205.167969 157.636719 208.277344 C 161.277344 211.386719 165.167969 214.140625 169.308594 216.535156 C 173.453125 218.933594 177.777344 220.933594 182.289062 222.539062 L 182.308594 222.539062 C 196.839844 227.570312 209.011719 223.941406 216.324219 216.253906 C 220.082031 211.933594 222.5 207.089844 223.382812 201.976562 C 223.519531 201.214844 223.613281 200.449219 223.675781 199.6875 C 223.699219 199.378906 223.71875 199.070312 223.734375 198.761719 C 223.734375 198.609375 223.746094 198.457031 223.753906 198.300781 C 223.949219 191.359375 221.363281 184.410156 216.394531 178.785156 C 209.511719 171.007812 199.914062 165.964844 190.625 161.082031 Z M 190.625 161.082031 " fill-opacity="1" fill-rule="nonzero"/></g><g fill="#007e30" fill-opacity="1"><g transform="translate(118.521602, 266.157669)"><g><path d="M 10.171875 -22.53125 C 12.691406 -22.53125 14.617188 -21.898438 15.953125 -20.640625 C 17.285156 -19.378906 18.082031 -17.691406 18.34375 -15.578125 L 13.828125 -15.578125 C 13.691406 -16.734375 13.304688 -17.628906 12.671875 -18.265625 C 12.035156 -18.910156 11.148438 -19.234375 10.015625 -19.234375 C 9.097656 -19.234375 8.347656 -19.007812 7.765625 -18.5625 C 7.191406 -18.113281 6.90625 -17.460938 6.90625 -16.609375 C 6.90625 -15.671875 7.25 -14.929688 7.9375 -14.390625 C 8.632812 -13.859375 9.859375 -13.390625 11.609375 -12.984375 C 14.023438 -12.429688 15.800781 -11.585938 16.9375 -10.453125 C 18.082031 -9.328125 18.65625 -7.867188 18.65625 -6.078125 C 18.65625 -4.078125 17.863281 -2.488281 16.28125 -1.3125 C 14.707031 -0.132812 12.78125 0.453125 10.5 0.453125 C 7.8125 0.453125 5.664062 -0.140625 4.0625 -1.328125 C 2.457031 -2.515625 1.550781 -4.25 1.34375 -6.53125 L 5.859375 -6.53125 C 6.085938 -5.351562 6.617188 -4.441406 7.453125 -3.796875 C 8.285156 -3.160156 9.28125 -2.84375 10.4375 -2.84375 C 11.457031 -2.84375 12.3125 -3.097656 13 -3.609375 C 13.695312 -4.128906 14.046875 -4.800781 14.046875 -5.625 C 14.046875 -6.570312 13.707031 -7.332031 13.03125 -7.90625 C 12.363281 -8.476562 11.226562 -8.957031 9.625 -9.34375 C 7.15625 -9.9375 5.3125 -10.726562 4.09375 -11.71875 C 2.875 -12.71875 2.265625 -14.164062 2.265625 -16.0625 C 2.265625 -18.03125 3.03125 -19.597656 4.5625 -20.765625 C 6.101562 -21.941406 7.972656 -22.53125 10.171875 -22.53125 Z M 10.171875 -22.53125 "/></g></g></g><g fill="#007e30" fill-opacity="1"><g transform="translate(146.548742, 266.157669)"><g><path d="M 12.703125 -8.546875 L 12.703125 0 L 8.3125 0 L 8.3125 -8.546875 L 0.515625 -22.078125 L 5.5 -22.078125 L 10.65625 -12.453125 L 15.640625 -22.078125 L 20.515625 -22.078125 Z M 12.703125 -8.546875 "/></g></g></g><g fill="#007e30" fill-opacity="1"><g transform="translate(175.151737, 266.157669)"><g><path d="M 10.171875 -22.53125 C 12.691406 -22.53125 14.617188 -21.898438 15.953125 -20.640625 C 17.285156 -19.378906 18.082031 -17.691406 18.34375 -15.578125 L 13.828125 -15.578125 C 13.691406 -16.734375 13.304688 -17.628906 12.671875 -18.265625 C 12.035156 -18.910156 11.148438 -19.234375 10.015625 -19.234375 C 9.097656 -19.234375 8.347656 -19.007812 7.765625 -18.5625 C 7.191406 -18.113281 6.90625 -17.460938 6.90625 -16.609375 C 6.90625 -15.671875 7.25 -14.929688 7.9375 -14.390625 C 8.632812 -13.859375 9.859375 -13.390625 11.609375 -12.984375 C 14.023438 -12.429688 15.800781 -11.585938 16.9375 -10.453125 C 18.082031 -9.328125 18.65625 -7.867188 18.65625 -6.078125 C 18.65625 -4.078125 17.863281 -2.488281 16.28125 -1.3125 C 14.707031 -0.132812 12.78125 0.453125 10.5 0.453125 C 7.8125 0.453125 5.664062 -0.140625 4.0625 -1.328125 C 2.457031 -2.515625 1.550781 -4.25 1.34375 -6.53125 L 5.859375 -6.53125 C 6.085938 -5.351562 6.617188 -4.441406 7.453125 -3.796875 C 8.285156 -3.160156 9.28125 -2.84375 10.4375 -2.84375 C 11.457031 -2.84375 12.3125 -3.097656 13 -3.609375 C 13.695312 -4.128906 14.046875 -4.800781 14.046875 -5.625 C 14.046875 -6.570312 13.707031 -7.332031 13.03125 -7.90625 C 12.363281 -8.476562 11.226562 -8.957031 9.625 -9.34375 C 7.15625 -9.9375 5.3125 -10.726562 4.09375 -11.71875 C 2.875 -12.71875 2.265625 -14.164062 2.265625 -16.0625 C 2.265625 -18.03125 3.03125 -19.597656 4.5625 -20.765625 C 6.101562 -21.941406 7.972656 -22.53125 10.171875 -22.53125 Z M 10.171875 -22.53125 "/></g></g></g><g fill="#007e30" fill-opacity="1"><g transform="translate(203.178876, 266.157669)"><g><path d="M 20.125 -18.625 L 12.640625 -18.625 L 12.640625 0 L 8.21875 0 L 8.21875 -18.625 L 0.734375 -18.625 L 0.734375 -22.078125 L 20.125 -22.078125 Z M 20.125 -18.625 "/></g></g></g><g fill="#007e30" fill-opacity="1"><g transform="translate(231.68589, 266.157669)"><g><path d="M 7.265625 0 L 2.84375 0 L 2.84375 -22.078125 L 7.265625 -22.078125 Z M 7.265625 0 "/></g></g></g><g fill="#007e30" fill-opacity="1"><g transform="translate(249.603514, 266.157669)"><g><path d="M 12.28125 -11.515625 L 21.59375 0 L 15.90625 0 L 9.09375 -8.921875 L 7.265625 -6.9375 L 7.265625 0 L 2.84375 0 L 2.84375 -22.078125 L 7.265625 -22.078125 L 7.265625 -11.421875 L 16.796875 -22.078125 L 22.046875 -22.078125 Z M 12.28125 -11.515625 "/></g></g></g></svg>