<svg xmlns="http://www.w3.org/2000/svg" xmlns:xlink="http://www.w3.org/1999/xlink" width="500" zoomAndPan="magnify" viewBox="0 0 375 374.999991" height="500" preserveAspectRatio="xMidYMid meet" version="1.0"><defs><clipPath id="ed89d77281"><path d="M 22.339844 22.339844 L 352.660156 22.339844 L 352.660156 352.660156 L 22.339844 352.660156 Z M 22.339844 22.339844 " clip-rule="nonzero"/></clipPath><clipPath id="6a3c737d40"><path d="M 187.5 22.339844 C 96.285156 22.339844 22.339844 96.285156 22.339844 187.5 C 22.339844 278.714844 96.285156 352.660156 187.5 352.660156 C 278.714844 352.660156 352.660156 278.714844 352.660156 187.5 C 352.660156 96.285156 278.714844 22.339844 187.5 22.339844 Z M 187.5 22.339844 " clip-rule="nonzero"/></clipPath><clipPath id="8795ddcd91"><path d="M 0.339844 0.339844 L 330.660156 0.339844 L 330.660156 330.660156 L 0.339844 330.660156 Z M 0.339844 0.339844 " clip-rule="nonzero"/></clipPath><clipPath id="f22a65d92d"><path d="M 165.5 0.339844 C 74.285156 0.339844 0.339844 74.285156 0.339844 165.5 C 0.339844 256.714844 74.285156 330.660156 165.5 330.660156 C 256.714844 330.660156 330.660156 256.714844 330.660156 165.5 C 330.660156 74.285156 256.714844 0.339844 165.5 0.339844 Z M 165.5 0.339844 " clip-rule="nonzero"/></clipPath><clipPath id="9ee4aa3ba0"><rect x="0" width="331" y="0" height="331"/></clipPath><clipPath id="9dcf520789"><path d="M 84.539062 67.523438 L 290.789062 67.523438 L 290.789062 307.523438 L 84.539062 307.523438 Z M 84.539062 67.523438 " clip-rule="nonzero"/></clipPath></defs><g clip-path="url(#ed89d77281)"><g clip-path="url(#6a3c737d40)"><g transform="matrix(1, 0, 0, 1, 22, 22)"><g clip-path="url(#9ee4aa3ba0)"><g clip-path="url(#8795ddcd91)"><g clip-path="url(#f22a65d92d)"><path fill="#ffffff" d="M 0.339844 0.339844 L 330.660156 0.339844 L 330.660156 330.660156 L 0.339844 330.660156 Z M 0.339844 0.339844 " fill-opacity="1" fill-rule="nonzero"/></g></g></g></g></g></g><g clip-path="url(#9dcf520789)"><path fill="#007e30" d="M 279.226562 263.328125 L 279.226562 263.351562 C 276.914062 266.238281 274.441406 269.035156 271.820312 271.75 C 262.683594 281.21875 252.285156 288.992188 240.617188 295.074219 C 243.476562 290.503906 245.871094 285.707031 247.800781 280.675781 C 254.210938 263.945312 254.753906 246.621094 249.339844 231.894531 C 240.828125 208.75 218.84375 197.191406 195.570312 184.953125 C 178.449219 175.976562 160.773438 166.691406 148.105469 152.355469 C 138.972656 142 134.191406 129.207031 134.554688 116.414062 C 134.554688 116.128906 134.554688 115.847656 134.589844 115.5625 C 134.609375 115 134.648438 114.433594 134.695312 113.863281 C 134.808594 112.480469 134.984375 111.050781 135.230469 109.652344 C 136.855469 100.230469 141.3125 91.308594 148.226562 83.363281 C 161.691406 69.214844 184.089844 62.53125 210.855469 71.792969 L 210.902344 71.792969 C 215.046875 73.269531 219.113281 74.929688 223.105469 76.777344 C 227.097656 78.621094 230.996094 80.648438 234.804688 82.847656 C 238.609375 85.050781 242.308594 87.421875 245.898438 89.964844 C 249.488281 92.503906 252.957031 95.203125 256.300781 98.058594 C 259.644531 100.914062 262.851562 103.917969 265.921875 107.066406 C 268.992188 110.214844 271.914062 113.496094 274.683594 116.914062 C 277.457031 120.328125 280.066406 123.863281 282.511719 127.515625 C 284.960938 131.171875 287.238281 134.929688 289.34375 138.789062 C 245.339844 122.46875 220.878906 130.0625 210.136719 125.226562 C 206.191406 123.414062 202.589844 121.078125 199.328125 118.214844 C 196.066406 115.347656 193.285156 112.078125 190.980469 108.398438 L 190.980469 108.371094 C 169.796875 75.746094 153.339844 94.398438 157.511719 116.914062 C 160.691406 131.8125 169.726562 145.675781 183.28125 156.054688 C 199.625 168.566406 219.519531 174.503906 237.074219 179.765625 C 257.960938 186.007812 275.988281 191.398438 284.453125 205.339844 C 294.128906 221.300781 291.90625 245.523438 279.226562 263.328125 Z M 179.453125 190.035156 C 156.179688 177.796875 134.195312 166.230469 125.691406 143.09375 C 120.269531 128.367188 120.820312 111.042969 127.222656 94.3125 C 129.152344 89.28125 131.546875 84.484375 134.40625 79.917969 C 122.738281 85.996094 112.335938 93.773438 103.199219 103.242188 C 100.578125 105.953125 98.105469 108.753906 95.789062 111.640625 C 83.089844 129.472656 80.855469 153.699219 90.566406 169.65625 C 99.03125 183.597656 117.066406 188.988281 137.945312 195.234375 C 155.5 200.484375 175.394531 206.429688 191.742188 218.941406 C 205.296875 229.320312 214.34375 243.1875 217.507812 258.085938 C 221.6875 280.597656 205.230469 299.25 184.042969 266.625 L 184.042969 266.597656 C 181.738281 262.921875 178.957031 259.648438 175.695312 256.785156 C 172.433594 253.921875 168.828125 251.582031 164.882812 249.773438 C 154.140625 244.933594 129.679688 252.539062 85.679688 236.207031 C 87.785156 240.066406 90.0625 243.824219 92.507812 247.476562 C 94.957031 251.132812 97.5625 254.664062 100.335938 258.078125 C 103.105469 261.496094 106.023438 264.777344 109.09375 267.925781 C 112.164062 271.074219 115.367188 274.074219 118.710938 276.929688 C 122.054688 279.789062 125.523438 282.484375 129.113281 285.023438 C 132.699219 287.5625 136.398438 289.933594 140.203125 292.136719 C 144.011719 294.339844 147.910156 296.363281 151.898438 298.207031 C 155.890625 300.054688 159.957031 301.714844 164.097656 303.191406 L 164.140625 303.191406 C 190.894531 312.453125 213.304688 305.769531 226.769531 291.617188 C 233.6875 283.660156 238.140625 274.746094 239.765625 265.324219 C 240.011719 263.925781 240.191406 262.519531 240.300781 261.113281 C 240.347656 260.546875 240.386719 259.980469 240.410156 259.414062 C 240.410156 259.132812 240.4375 258.851562 240.445312 258.5625 C 240.804688 245.777344 236.046875 232.988281 226.894531 222.632812 C 214.222656 208.3125 196.550781 199.019531 179.453125 190.035156 Z M 179.453125 190.035156 " fill-opacity="1" fill-rule="nonzero"/></g></svg>