<svg xmlns="http://www.w3.org/2000/svg" xmlns:xlink="http://www.w3.org/1999/xlink" width="250" zoomAndPan="magnify" viewBox="0 0 187.5 187.499992" height="250" preserveAspectRatio="xMidYMid meet" version="1.0"><defs><clipPath id="bbb1dec4fa"><path d="M 11.140625 11.140625 L 175.859375 11.140625 L 175.859375 175.859375 L 11.140625 175.859375 Z M 11.140625 11.140625 " clip-rule="nonzero"/></clipPath><clipPath id="802ac2cb0c"><path d="M 93.5 11.140625 C 48.015625 11.140625 11.140625 48.015625 11.140625 93.5 C 11.140625 138.988281 48.015625 175.859375 93.5 175.859375 C 138.988281 175.859375 175.859375 138.988281 175.859375 93.5 C 175.859375 48.015625 138.988281 11.140625 93.5 11.140625 Z M 93.5 11.140625 " clip-rule="nonzero"/></clipPath><clipPath id="87ccaa4619"><path d="M 0.140625 0.140625 L 164.859375 0.140625 L 164.859375 164.859375 L 0.140625 164.859375 Z M 0.140625 0.140625 " clip-rule="nonzero"/></clipPath><clipPath id="a76fd9c1a3"><path d="M 82.5 0.140625 C 37.015625 0.140625 0.140625 37.015625 0.140625 82.5 C 0.140625 127.988281 37.015625 164.859375 82.5 164.859375 C 127.988281 164.859375 164.859375 127.988281 164.859375 82.5 C 164.859375 37.015625 127.988281 0.140625 82.5 0.140625 Z M 82.5 0.140625 " clip-rule="nonzero"/></clipPath><clipPath id="f0724d2c35"><rect x="0" width="165" y="0" height="165"/></clipPath><clipPath id="7b1eb81b47"><path d="M 42.15625 33.671875 L 144.632812 33.671875 L 144.632812 153.351562 L 42.15625 153.351562 Z M 42.15625 33.671875 " clip-rule="nonzero"/></clipPath></defs><g clip-path="url(#bbb1dec4fa)"><g clip-path="url(#802ac2cb0c)"><g transform="matrix(1, 0, 0, 1, 11, 11)"><g clip-path="url(#f0724d2c35)"><g clip-path="url(#87ccaa4619)"><g clip-path="url(#a76fd9c1a3)"><path fill="#ffffff" d="M 0.140625 0.140625 L 164.859375 0.140625 L 164.859375 164.859375 L 0.140625 164.859375 Z M 0.140625 0.140625 " fill-opacity="1" fill-rule="nonzero"/></g></g></g></g></g></g><g clip-path="url(#7b1eb81b47)"><path fill="#007e30" d="M 139.242188 131.3125 L 139.242188 131.324219 C 138.085938 132.765625 136.855469 134.160156 135.546875 135.515625 C 130.992188 140.234375 125.804688 144.113281 119.988281 147.144531 C 121.414062 144.867188 122.609375 142.472656 123.570312 139.964844 C 126.765625 131.621094 127.039062 122.984375 124.335938 115.640625 C 120.09375 104.097656 109.132812 98.332031 97.523438 92.230469 C 88.988281 87.753906 80.171875 83.125 73.855469 75.976562 C 69.300781 70.8125 66.917969 64.429688 67.097656 58.054688 C 67.097656 57.910156 67.097656 57.769531 67.113281 57.628906 C 67.125 57.347656 67.144531 57.0625 67.167969 56.78125 C 67.226562 56.089844 67.3125 55.378906 67.433594 54.679688 C 68.246094 49.980469 70.46875 45.53125 73.917969 41.570312 C 80.628906 34.515625 91.800781 31.183594 105.148438 35.800781 L 105.171875 35.800781 C 109.3125 37.277344 113.285156 39.113281 117.089844 41.316406 C 120.894531 43.515625 124.46875 46.042969 127.808594 48.898438 C 131.152344 51.753906 134.207031 54.886719 136.976562 58.300781 C 139.746094 61.714844 142.183594 65.351562 144.285156 69.210938 C 122.34375 61.070312 110.144531 64.859375 104.789062 62.445312 C 102.820312 61.542969 101.023438 60.378906 99.398438 58.949219 C 97.773438 57.519531 96.386719 55.890625 95.238281 54.054688 L 95.238281 54.042969 C 84.671875 37.773438 76.464844 47.074219 78.546875 58.300781 C 80.132812 65.730469 84.636719 72.644531 91.398438 77.820312 C 99.546875 84.058594 109.46875 87.019531 118.222656 89.644531 C 128.636719 92.757812 137.628906 95.445312 141.847656 102.398438 C 146.675781 110.355469 145.566406 122.4375 139.242188 131.3125 Z M 89.488281 94.765625 C 77.882812 88.664062 66.917969 82.894531 62.679688 71.355469 C 59.976562 64.011719 60.25 55.375 63.441406 47.03125 C 64.402344 44.523438 65.597656 42.128906 67.023438 39.851562 C 61.207031 42.882812 56.019531 46.761719 51.460938 51.484375 C 50.15625 52.835938 48.921875 54.230469 47.765625 55.671875 C 41.433594 64.566406 40.320312 76.644531 45.164062 84.601562 C 49.382812 91.554688 58.375 94.242188 68.789062 97.359375 C 77.542969 99.976562 87.464844 102.941406 95.617188 109.179688 C 102.375 114.355469 106.886719 121.269531 108.464844 128.699219 C 110.546875 139.925781 102.339844 149.226562 91.777344 132.957031 L 91.777344 132.945312 C 90.628906 131.109375 89.238281 129.480469 87.613281 128.050781 C 85.988281 126.621094 84.191406 125.457031 82.222656 124.554688 C 76.867188 122.140625 64.667969 125.933594 42.726562 117.789062 C 44.828125 121.648438 47.265625 125.285156 50.035156 128.695312 C 52.800781 132.109375 55.855469 135.242188 59.199219 138.097656 C 62.539062 140.953125 66.113281 143.480469 69.914062 145.679688 C 73.71875 147.878906 77.691406 149.71875 81.832031 151.191406 L 81.851562 151.191406 C 95.191406 155.8125 106.367188 152.476562 113.082031 145.421875 C 116.535156 141.453125 118.753906 137.007812 119.566406 132.308594 C 119.6875 131.609375 119.777344 130.910156 119.832031 130.210938 C 119.855469 129.925781 119.875 129.644531 119.882812 129.363281 C 119.882812 129.222656 119.898438 129.082031 119.902344 128.9375 C 120.082031 122.5625 117.707031 116.183594 113.144531 111.019531 C 106.828125 103.878906 98.015625 99.246094 89.488281 94.765625 Z M 89.488281 94.765625 " fill-opacity="1" fill-rule="nonzero"/></g></svg>